<mxfile host="app.diagrams.net" modified="2023-04-07T04:53:45.607Z" agent="Mozilla/5.0 (Windows NT 10.0; Win64; x64) AppleWebKit/537.36 (KHTML, like Gecko) Chrome/96.0.4664.55 Safari/537.36 Edg/96.0.1054.34" etag="n75UbVlAr53umvkSpaJu" version="21.1.4" type="github">
  <diagram id="3V1YfAVSIty73IVgS_lY" name="Страница 1">
    <mxGraphModel dx="2920" dy="1937" grid="1" gridSize="10" guides="1" tooltips="1" connect="1" arrows="1" fold="1" page="0" pageScale="1" pageWidth="827" pageHeight="1169" background="none" math="0" shadow="0">
      <root>
        <mxCell id="0" />
        <mxCell id="1" parent="0" />
        <mxCell id="7ZjIoTD0nGE5JDTKxoU6-2" value="" style="rounded=0;whiteSpace=wrap;html=1;movable=0;resizable=0;rotatable=0;deletable=0;editable=0;locked=1;connectable=0;" vertex="1" parent="1">
          <mxGeometry x="-80" y="1930" width="520" height="270" as="geometry" />
        </mxCell>
        <mxCell id="7ZjIoTD0nGE5JDTKxoU6-1" value="" style="rounded=0;whiteSpace=wrap;html=1;" vertex="1" parent="1">
          <mxGeometry x="1720" y="800" width="3440" height="2200" as="geometry" />
        </mxCell>
        <mxCell id="node16" value="&lt;p style=&quot;margin:0px;margin-top:4px;text-align:center;&quot;&gt;&lt;b&gt;AllFIOFOTO&lt;/b&gt;&lt;/p&gt;&lt;hr size=&quot;1&quot;/&gt;&lt;p style=&quot;margin:0 0 0 4px;line-height:1.6;&quot;&gt; EmployeeId: int&lt;br/&gt; Имя: nvarchar(200)&lt;br/&gt; Фамилия: nvarchar(200)&lt;br/&gt; Отчество: nvarchar(200)&lt;br/&gt; Дата рождения: nvarchar(500)&lt;br/&gt; Пол: nvarchar(500)&lt;br/&gt; pol: varchar(1)&lt;br/&gt; Адрес: nvarchar(1001)&lt;br/&gt; Тип документа: nvarchar(500)&lt;br/&gt; Серия документа: nvarchar(500)&lt;br/&gt; Номер документа: nvarchar(500)&lt;br/&gt; Дата выдачи: nvarchar(500)&lt;br/&gt; Организация: nvarchar(500)&lt;br/&gt; Город: nvarchar(500)&lt;br/&gt; Улица, дом: nvarchar(500)&lt;br/&gt; Дирекция: nvarchar(500)&lt;br/&gt; Контактный телефон: nvarchar(500)&lt;br/&gt; Гос. номер: nvarchar(500)&lt;br/&gt; Марка авто:: nvarchar(500)&lt;br/&gt; TabCode: nvarchar(50)&lt;br/&gt; Должность: nvarchar(250)&lt;br/&gt; SubdivisionName: nvarchar(200)&lt;br/&gt; Пропуск: nvarchar(20)&lt;br/&gt; PhotoPreview: image&lt;/p&gt;" style="verticalAlign=top;align=left;overflow=fill;fontSize=14;fontFamily=Helvetica;html=1;rounded=0;shadow=0;comic=0;labelBackgroundColor=none;strokeWidth=1;" parent="1" vertex="1">
          <mxGeometry x="2430" y="860" width="230" height="581" as="geometry" />
        </mxCell>
        <mxCell id="node32" value="&lt;p style=&quot;margin:0px;margin-top:4px;text-align:center;&quot;&gt;&lt;b&gt;AllWithoutThirdOrg&lt;/b&gt;&lt;/p&gt;&lt;hr size=&quot;1&quot;/&gt;&lt;p style=&quot;margin:0 0 0 4px;line-height:1.6;&quot;&gt; Площадка: varchar(8)&lt;br/&gt; ПлощадкаГруппа: varchar(8)&lt;br/&gt; SubdivisionName: nvarchar(200)&lt;br/&gt; Employee: nvarchar(602)&lt;br/&gt; PassCode: nvarchar(20)&lt;br/&gt; PositionName: nvarchar(250)&lt;br/&gt; KPP_In: nvarchar(200)&lt;br/&gt; EventTypeId_In: int&lt;br/&gt; EventDateTime_In: datetime&lt;br/&gt; KPP_Out: nvarchar(200)&lt;br/&gt; EventTypeId_Out: int&lt;br/&gt; EventDateTime_Out: datetime&lt;br/&gt; SecondNew: int&lt;br/&gt; Нарушение: varchar(26)&lt;/p&gt;" style="verticalAlign=top;align=left;overflow=fill;fontSize=14;fontFamily=Helvetica;html=1;rounded=0;shadow=0;comic=0;labelBackgroundColor=none;strokeWidth=1;" parent="1" vertex="1">
          <mxGeometry x="4195" y="1949" width="204" height="361" as="geometry" />
        </mxCell>
        <mxCell id="node19" value="&lt;p style=&quot;margin:0px;margin-top:4px;text-align:center;&quot;&gt;&lt;b&gt;Car&lt;/b&gt;&lt;/p&gt;&lt;hr size=&quot;1&quot;/&gt;&lt;p style=&quot;margin:0 0 0 4px;line-height:1.6;&quot;&gt; SigurId: int&lt;br/&gt; CarNumber: nvarchar(20)&lt;br/&gt; CarNumberPretty: nvarchar(20)&lt;br/&gt; SubdivisionPath: nvarchar(1000)&lt;br/&gt; PassKeyHex: nvarchar(20)&lt;br/&gt; PassMfuidHex: nvarchar(20)&lt;br/&gt; PassActive: datetime&lt;br/&gt; PassExpire: datetime&lt;br/&gt; Deleted: bit&lt;/p&gt;&lt;hr size=&quot;1&quot;/&gt;&lt;p style=&quot;margin:0 0 0 4px;line-height:1.6;&quot;&gt; CarId: int&lt;/p&gt;" style="verticalAlign=top;align=left;overflow=fill;fontSize=14;fontFamily=Helvetica;html=1;rounded=0;shadow=0;comic=0;labelBackgroundColor=none;strokeWidth=1;" parent="1" vertex="1">
          <mxGeometry x="665" y="-169" width="202" height="289" as="geometry" />
        </mxCell>
        <mxCell id="node15" value="&lt;p style=&quot;margin:0px;margin-top:4px;text-align:center;&quot;&gt;&lt;b&gt;CarsWithSigurSideParams&lt;/b&gt;&lt;/p&gt;&lt;hr size=&quot;1&quot;/&gt;&lt;p style=&quot;margin:0 0 0 4px;line-height:1.6;&quot;&gt; CarId: int&lt;br/&gt; CarNumber: nvarchar(20)&lt;br/&gt; Спец. отметки: nvarchar(500)&lt;br/&gt; Организация: nvarchar(500)&lt;br/&gt; Место выдачи пропуска: nvarchar(500)&lt;br/&gt; Цвет авто:: nvarchar(500)&lt;br/&gt; Дата увольнения: nvarchar(500)&lt;br/&gt; Причина увольнения: nvarchar(500)&lt;br/&gt; Тип кузова: nvarchar(500)&lt;br/&gt; Дирекция: nvarchar(500)&lt;br/&gt; Тип ТС: nvarchar(500)&lt;br/&gt; Контактный телефон: nvarchar(500)&lt;br/&gt; Марка авто:: nvarchar(500)&lt;br/&gt; График работы: nvarchar(500)&lt;br/&gt; ПСП Авто: nvarchar(500)&lt;br/&gt; ПРП Авто: nvarchar(500)&lt;br/&gt; Склады УПП Авто: nvarchar(500)&lt;br/&gt; ЗС ТЭЦ Авто: nvarchar(500)&lt;br/&gt; АТУ Авто: nvarchar(500)&lt;br/&gt; ПВС - шифр 5: nvarchar(500)&lt;br/&gt; КЦ-2 Авто: nvarchar(500)&lt;br/&gt; АОФ Авто: nvarchar(500)&lt;br/&gt; ТШФ Авто: nvarchar(500)&lt;br/&gt; ГШФ Авто: nvarchar(500)&lt;br/&gt; Каз Авто: nvarchar(500)&lt;br/&gt; Гурьевск Авто: nvarchar(500)&lt;br/&gt; ЗУ ПСП Авто: nvarchar(500)&lt;br/&gt; ЗУ ПРП Авто: nvarchar(500)&lt;br/&gt; КПП 4а Авто: nvarchar(500)&lt;br/&gt; КПП 8 СП Авто: nvarchar(500)&lt;br/&gt; Дата выдачи пропуска: nvarchar(500)&lt;br/&gt; КПП 8Б СП Авто: nvarchar(500)&lt;br/&gt; Гос. номер прицепа: nvarchar(500)&lt;br/&gt; ТМЦ (для разовых): nvarchar(500)&lt;br/&gt; Куда выдан (для разовых): nvarchar(500)&lt;/p&gt;" style="verticalAlign=top;align=left;overflow=fill;fontSize=14;fontFamily=Helvetica;html=1;rounded=0;shadow=0;comic=0;labelBackgroundColor=none;strokeWidth=1;" parent="1" vertex="1">
          <mxGeometry x="1840" y="860" width="290" height="824" as="geometry" />
        </mxCell>
        <mxCell id="node13" value="&lt;p style=&quot;margin:0px;margin-top:4px;text-align:center;&quot;&gt;&lt;b&gt;Division&lt;/b&gt;&lt;/p&gt;&lt;hr size=&quot;1&quot;/&gt;&lt;p style=&quot;margin:0 0 0 4px;line-height:1.6;&quot;&gt; DivisionCode: nvarchar(20)&lt;br/&gt; DivisionName: nvarchar(200)&lt;br/&gt; ShortDivisionName: nvarchar(200)&lt;br/&gt; MainServerId: nvarchar(50)&lt;br/&gt; IsFromMim: bit&lt;br/&gt; IsFromSigur: bit&lt;br/&gt; IsSgmkLoad: bit&lt;br/&gt; Guid: uniqueidentifier&lt;/p&gt;&lt;hr size=&quot;1&quot;/&gt;&lt;p style=&quot;margin:0 0 0 4px;line-height:1.6;&quot;&gt; DivisionId: int&lt;/p&gt;" style="verticalAlign=top;align=left;overflow=fill;fontSize=14;fontFamily=Helvetica;html=1;rounded=0;shadow=0;comic=0;labelBackgroundColor=none;strokeWidth=1;" parent="1" vertex="1">
          <mxGeometry x="273" y="-980" width="216" height="261" as="geometry" />
        </mxCell>
        <mxCell id="cWEJfIrk-wbByWxWi2YJ-11" style="edgeStyle=orthogonalEdgeStyle;rounded=1;orthogonalLoop=1;jettySize=auto;html=1;exitX=0;exitY=0.5;exitDx=0;exitDy=0;entryX=1;entryY=0.5;entryDx=0;entryDy=0;" parent="1" source="node37" target="node12" edge="1">
          <mxGeometry relative="1" as="geometry" />
        </mxCell>
        <mxCell id="node37" value="&lt;p style=&quot;margin:0px;margin-top:4px;text-align:center;&quot;&gt;&lt;b&gt;Employee&lt;/b&gt;&lt;/p&gt;&lt;hr size=&quot;1&quot;/&gt;&lt;p style=&quot;margin:0 0 0 4px;line-height:1.6;&quot;&gt; FirstName: nvarchar(200)&lt;br/&gt; LastName: nvarchar(200)&lt;br/&gt; MiddleName: nvarchar(200)&lt;br/&gt; EmployeePositionId: int&lt;br/&gt; PassCode: nvarchar(20)&lt;br/&gt; TabCode: nvarchar(50)&lt;br/&gt; SubdivisionId: int&lt;br/&gt; GUID: nvarchar(36)&lt;br/&gt; SigurId: int&lt;br/&gt; LastUpdate: datetime&lt;br/&gt; PassKeyHex: nvarchar(20)&lt;br/&gt; PassKeyDec: nvarchar(20)&lt;br/&gt; PassMFUID: nvarchar(20)&lt;br/&gt; PassActive: datetime&lt;br/&gt; PassExpire: datetime&lt;br/&gt; Photo: image&lt;br/&gt; PhotoPreview: image&lt;br/&gt; PassportSerial: nvarchar(10)&lt;br/&gt; PassportNumber: nvarchar(10)&lt;br/&gt; PassportIssuedBy: nvarchar(200)&lt;br/&gt; PassportDateIssue: date&lt;br/&gt; OfficePhone: nvarchar(20)&lt;br/&gt; RegistrationAddress: nvarchar(200)&lt;br/&gt; IsExternal: bit&lt;br/&gt; IsFired: bit&lt;br/&gt; DateBirth: date&lt;br/&gt; Sex: int&lt;br/&gt; SubdivisionPath: nvarchar(1000)&lt;/p&gt;&lt;hr size=&quot;1&quot;/&gt;&lt;p style=&quot;margin:0 0 0 4px;line-height:1.6;&quot;&gt; EmployeeId: int&lt;/p&gt;" style="verticalAlign=top;align=left;overflow=fill;fontSize=14;fontFamily=Helvetica;html=1;rounded=0;shadow=0;comic=0;labelBackgroundColor=none;strokeWidth=1;" parent="1" vertex="1">
          <mxGeometry x="425" y="-378" width="220" height="718" as="geometry" />
        </mxCell>
        <mxCell id="node23" value="&lt;p style=&quot;margin:0px;margin-top:4px;text-align:center;&quot;&gt;&lt;b&gt;EmployeePhoto&lt;/b&gt;&lt;/p&gt;&lt;hr size=&quot;1&quot;/&gt;&lt;p style=&quot;margin:0 0 0 4px;line-height:1.6;&quot;&gt; PhotoPreview: image&lt;br/&gt; PhotoFull: image&lt;/p&gt;&lt;hr size=&quot;1&quot;/&gt;&lt;p style=&quot;margin:0 0 0 4px;line-height:1.6;&quot;&gt; EmployeeId: int&lt;/p&gt;" style="verticalAlign=top;align=left;overflow=fill;fontSize=14;fontFamily=Helvetica;html=1;rounded=0;shadow=0;comic=0;labelBackgroundColor=none;strokeWidth=1;" parent="1" vertex="1">
          <mxGeometry x="461" y="522" width="148" height="124" as="geometry" />
        </mxCell>
        <mxCell id="node10" value="&lt;p style=&quot;margin:0px;margin-top:4px;text-align:center;&quot;&gt;&lt;b&gt;EmployeePosition&lt;/b&gt;&lt;/p&gt;&lt;hr size=&quot;1&quot;/&gt;&lt;p style=&quot;margin:0 0 0 4px;line-height:1.6;&quot;&gt; EmployeePositionCode: nvarchar(20)&lt;br/&gt; PositionName: nvarchar(250)&lt;br/&gt; ShortPositionName: nvarchar(250)&lt;br/&gt; PositionCategory: nvarchar(10)&lt;/p&gt;&lt;hr size=&quot;1&quot;/&gt;&lt;p style=&quot;margin:0 0 0 4px;line-height:1.6;&quot;&gt; EmployeePositionId: int&lt;/p&gt;" style="verticalAlign=top;align=left;overflow=fill;fontSize=14;fontFamily=Helvetica;html=1;rounded=0;shadow=0;comic=0;labelBackgroundColor=none;strokeWidth=1;" parent="1" vertex="1">
          <mxGeometry x="518" y="-658" width="252" height="178" as="geometry" />
        </mxCell>
        <mxCell id="cWEJfIrk-wbByWxWi2YJ-12" style="edgeStyle=orthogonalEdgeStyle;rounded=1;orthogonalLoop=1;jettySize=auto;html=1;exitX=0;exitY=0.5;exitDx=0;exitDy=0;entryX=1;entryY=0.5;entryDx=0;entryDy=0;" parent="1" source="node12" target="node33" edge="1">
          <mxGeometry relative="1" as="geometry" />
        </mxCell>
        <mxCell id="node12" value="&lt;p style=&quot;margin:0px;margin-top:4px;text-align:center;&quot;&gt;&lt;b&gt;EmployeeSigurSideParam&lt;/b&gt;&lt;/p&gt;&lt;hr size=&quot;1&quot;/&gt;&lt;p style=&quot;margin:0 0 0 4px;line-height:1.6;&quot;&gt; SigurEmployeeId: bigint&lt;br/&gt; SigurSideParamId: bigint&lt;br/&gt; Value: nvarchar(500)&lt;/p&gt;&lt;hr size=&quot;1&quot;/&gt;&lt;p style=&quot;margin:0 0 0 4px;line-height:1.6;&quot;&gt; Id: bigint&lt;/p&gt;" style="verticalAlign=top;align=left;overflow=fill;fontSize=14;fontFamily=Helvetica;html=1;rounded=0;shadow=0;comic=0;labelBackgroundColor=none;strokeWidth=1;" parent="1" vertex="1">
          <mxGeometry x="-260" y="-500" width="214" height="142" as="geometry" />
        </mxCell>
        <mxCell id="node5" value="&lt;p style=&quot;margin:0px;margin-top:4px;text-align:center;&quot;&gt;&lt;b&gt;EmployeesWithSigurSideParams&lt;/b&gt;&lt;/p&gt;&lt;hr size=&quot;1&quot;/&gt;&lt;p style=&quot;margin:0 0 0 4px;line-height:1.6;&quot;&gt; EmployeeId: int&lt;br/&gt; FirstName: nvarchar(200)&lt;br/&gt; LastName: nvarchar(200)&lt;br/&gt; MiddleName: nvarchar(200)&lt;br/&gt; Дата рождения: nvarchar(500)&lt;br/&gt; Пол: nvarchar(500)&lt;br/&gt; Спец. отметки: nvarchar(500)&lt;br/&gt; Тип документа: nvarchar(500)&lt;br/&gt; Серия документа: nvarchar(500)&lt;br/&gt; Номер документа: nvarchar(500)&lt;br/&gt; Кем выдан: nvarchar(500)&lt;br/&gt; Дата выдачи: nvarchar(500)&lt;br/&gt; Стоянка:: nvarchar(500)&lt;br/&gt; Электронная почта: nvarchar(500)&lt;br/&gt; Организация: nvarchar(500)&lt;br/&gt; Место выдачи пропуска: nvarchar(500)&lt;br/&gt; Цвет авто:: nvarchar(500)&lt;br/&gt; Город: nvarchar(500)&lt;br/&gt; Улица, дом: nvarchar(500)&lt;br/&gt; Дата увольнения: nvarchar(500)&lt;br/&gt; Причина увольнения: nvarchar(500)&lt;br/&gt; ДИТ: nvarchar(500)&lt;br/&gt; Тип кузова: nvarchar(500)&lt;br/&gt; Дирекция: nvarchar(500)&lt;br/&gt; Дата следующего экзамена по ОТиПБ: nvarchar(500)&lt;br/&gt; S/N Ноутбук: nvarchar(500)&lt;br/&gt; Контактный телефон: nvarchar(500)&lt;br/&gt; ЦСР: nvarchar(500)&lt;br/&gt; Фото/Видео:: nvarchar(500)&lt;br/&gt; График_Время_С: nvarchar(500)&lt;br/&gt; График_Время_По: nvarchar(500)&lt;br/&gt; График_Выходные и праздники: nvarchar(500)&lt;br/&gt; Марка авто:: nvarchar(500)&lt;br/&gt; Гос. номер: nvarchar(500)&lt;br/&gt; График проезда авто: nvarchar(500)&lt;br/&gt; График работы: nvarchar(500)&lt;br/&gt; ПСП: nvarchar(500)&lt;br/&gt; ПСП Авто: nvarchar(500)&lt;br/&gt; ПРП: nvarchar(500)&lt;br/&gt; ПРП Авто: nvarchar(500)&lt;br/&gt; Склады УПП (ПСП)-шифр 1: nvarchar(500)&lt;br/&gt; Склады УПП Авто: nvarchar(500)&lt;br/&gt; Уч-к ректификации бензола - шифр 2: nvarchar(500)&lt;br/&gt; ЗС ТЭЦ - шифр 3: nvarchar(500)&lt;br/&gt; ЗС ТЭЦ Авто: nvarchar(500)&lt;br/&gt; АТУ (ПСП) - шифр 4: nvarchar(500)&lt;br/&gt; АТУ Авто: nvarchar(500)&lt;br/&gt; ПВС - шифр 5: nvarchar(500)&lt;br/&gt; КЦ-2 шифр 7: nvarchar(500)&lt;br/&gt; КЦ-2 Авто: nvarchar(500)&lt;br/&gt; АОФ - шифр 10: nvarchar(500)&lt;br/&gt; АОФ Авто: nvarchar(500)&lt;br/&gt; ТШФ - шифр 11: nvarchar(500)&lt;br/&gt; ТШФ Авто: nvarchar(500)&lt;br/&gt; ГШФ - шифр 12: nvarchar(500)&lt;br/&gt; ГШФ Авто: nvarchar(500)&lt;br/&gt; Каз - шифр 13: nvarchar(500)&lt;br/&gt; Каз Авто: nvarchar(500)&lt;br/&gt; Гурьевск - шифр 14: nvarchar(500)&lt;br/&gt; Гурьевск Авто: nvarchar(500)&lt;br/&gt; Калитка ЭЦ АОФ: nvarchar(500)&lt;br/&gt; ЗУ ПСП: nvarchar(500)&lt;br/&gt; ЗУ ПСП Авто: nvarchar(500)&lt;br/&gt; ЗУ ПРП: nvarchar(500)&lt;br/&gt; ЗУ ПРП Авто: nvarchar(500)&lt;br/&gt; ПЦН АОФ: nvarchar(500)&lt;br/&gt; Серверная АОФ: nvarchar(500)&lt;br/&gt; Серверная ТШФ: nvarchar(500)&lt;br/&gt; Серверная ГШФ: nvarchar(500)&lt;br/&gt; Серверная Каз: nvarchar(500)&lt;br/&gt; Серверная Гурьевск: nvarchar(500)&lt;br/&gt; КПП 4а Авто: nvarchar(500)&lt;br/&gt; КПП 8 СП Авто: nvarchar(500)&lt;br/&gt; СПГТ Каз: nvarchar(500)&lt;br/&gt; СПГТ Шерегеш: nvarchar(500)&lt;br/&gt; СПГТ Таштагол: nvarchar(500)&lt;br/&gt; Дата выдачи пропуска: nvarchar(500)&lt;br/&gt; КПП 8Б СП Авто: nvarchar(500)&lt;/p&gt;" style="verticalAlign=top;align=left;overflow=fill;fontSize=14;fontFamily=Helvetica;html=1;rounded=0;shadow=0;comic=0;labelBackgroundColor=none;strokeWidth=1;" parent="1" vertex="1">
          <mxGeometry x="4730" y="860" width="410" height="1794" as="geometry" />
        </mxCell>
        <mxCell id="node14" value="&lt;p style=&quot;margin:0px;margin-top:4px;text-align:center;&quot;&gt;&lt;b&gt;Enter_AlcoholResult&lt;/b&gt;&lt;/p&gt;&lt;hr size=&quot;1&quot;/&gt;&lt;p style=&quot;margin:0 0 0 4px;line-height:1.6;&quot;&gt; PassCode: nvarchar(20)&lt;br/&gt; EnterDateTime: datetime&lt;br/&gt; EnterDirection: nvarchar(20)&lt;br/&gt; InfoEmployee: nvarchar(200)&lt;br/&gt; HasAlcohol: bit&lt;br/&gt; InfoKPP: nvarchar(200)&lt;/p&gt;&lt;hr size=&quot;1&quot;/&gt;&lt;p style=&quot;margin:0 0 0 4px;line-height:1.6;&quot;&gt; Id: int&lt;/p&gt;" style="verticalAlign=top;align=left;overflow=fill;fontSize=14;fontFamily=Helvetica;html=1;rounded=0;shadow=0;comic=0;labelBackgroundColor=none;strokeWidth=1;" parent="1" vertex="1">
          <mxGeometry x="-60" y="1949" width="185" height="216" as="geometry" />
        </mxCell>
        <mxCell id="node0" value="&lt;p style=&quot;margin:0px;margin-top:4px;text-align:center;&quot;&gt;&lt;b&gt;Enter_KPP&lt;/b&gt;&lt;/p&gt;&lt;hr size=&quot;1&quot;/&gt;&lt;p style=&quot;margin:0 0 0 4px;line-height:1.6;&quot;&gt; PassCode: nvarchar(20)&lt;br/&gt; EnterDateTime: datetime&lt;br/&gt; EnterDirection: nvarchar(20)&lt;br/&gt; InfoKPP: nvarchar(200)&lt;br/&gt; InfoEmployee: nvarchar(200)&lt;/p&gt;&lt;hr size=&quot;1&quot;/&gt;&lt;p style=&quot;margin:0 0 0 4px;line-height:1.6;&quot;&gt; Id: int&lt;/p&gt;" style="verticalAlign=top;align=left;overflow=fill;fontSize=14;fontFamily=Helvetica;html=1;rounded=0;shadow=0;comic=0;labelBackgroundColor=none;strokeWidth=1;" parent="1" vertex="1">
          <mxGeometry x="150" y="1949" width="185" height="196" as="geometry" />
        </mxCell>
        <mxCell id="node2" value="&lt;p style=&quot;margin:0px;margin-top:4px;text-align:center;&quot;&gt;&lt;b&gt;Guest&lt;/b&gt;&lt;/p&gt;&lt;hr size=&quot;1&quot;/&gt;&lt;p style=&quot;margin:0 0 0 4px;line-height:1.6;&quot;&gt; SigurId: int&lt;br/&gt; GuestType: nvarchar(50)&lt;br/&gt; GuestCardId: int&lt;br/&gt; DateCreated: datetime&lt;br/&gt; DateExpiration: datetime&lt;br/&gt; DateFinalization: datetime&lt;br/&gt; Doctype: nvarchar(50)&lt;br/&gt; Docname: nvarchar(50)&lt;br/&gt; FirstName: nvarchar(100)&lt;br/&gt; LastName: nvarchar(100)&lt;br/&gt; MiddleName: nvarchar(100)&lt;br/&gt; Birth: date&lt;br/&gt; PassportSeries: nvarchar(50)&lt;br/&gt; PassportNumber: nvarchar(50)&lt;br/&gt; PassportWhoIssued: nvarchar(250)&lt;br/&gt; PassportWhenIssued: date&lt;br/&gt; Address: nvarchar(500)&lt;br/&gt; Comment: nvarchar(500)&lt;br/&gt; CarNumber: nvarchar(20)&lt;br/&gt; Guid: uniqueidentifier&lt;/p&gt;&lt;hr size=&quot;1&quot;/&gt;&lt;p style=&quot;margin:0 0 0 4px;line-height:1.6;&quot;&gt; GuestId: int&lt;/p&gt;" style="verticalAlign=top;align=left;overflow=fill;fontSize=14;fontFamily=Helvetica;html=1;rounded=0;shadow=0;comic=0;labelBackgroundColor=none;strokeWidth=1;" parent="1" vertex="1">
          <mxGeometry x="1480" y="-667" width="255" height="527" as="geometry" />
        </mxCell>
        <mxCell id="node11" value="&lt;p style=&quot;margin:0px;margin-top:4px;text-align:center;&quot;&gt;&lt;b&gt;GuestCard&lt;/b&gt;&lt;/p&gt;&lt;hr size=&quot;1&quot;/&gt;&lt;p style=&quot;margin:0 0 0 4px;line-height:1.6;&quot;&gt; Name: nvarchar(200)&lt;br/&gt; SigurId: int&lt;br/&gt; PassMfuidHex: nvarchar(20)&lt;br/&gt; PassHex: nvarchar(20)&lt;br/&gt; IsTemporaryCard: bit&lt;br/&gt; Guid: uniqueidentifier&lt;/p&gt;&lt;hr size=&quot;1&quot;/&gt;&lt;p style=&quot;margin:0 0 0 4px;line-height:1.6;&quot;&gt; GuestCardId: int&lt;/p&gt;" style="verticalAlign=top;align=left;overflow=fill;fontSize=14;fontFamily=Helvetica;html=1;rounded=0;shadow=0;comic=0;labelBackgroundColor=none;strokeWidth=1;" parent="1" vertex="1">
          <mxGeometry x="1497" y="-930" width="181" height="213" as="geometry" />
        </mxCell>
        <mxCell id="node25" value="&lt;p style=&quot;margin:0px;margin-top:4px;text-align:center;&quot;&gt;&lt;b&gt;KPP&lt;/b&gt;&lt;/p&gt;&lt;hr size=&quot;1&quot;/&gt;&lt;p style=&quot;margin:0 0 0 4px;line-height:1.6;&quot;&gt; Name: nvarchar(200)&lt;/p&gt;&lt;hr size=&quot;1&quot;/&gt;&lt;p style=&quot;margin:0 0 0 4px;line-height:1.6;&quot;&gt; Id: int&lt;/p&gt;" style="verticalAlign=top;align=left;overflow=fill;fontSize=14;fontFamily=Helvetica;html=1;rounded=0;shadow=0;comic=0;labelBackgroundColor=none;strokeWidth=1;" parent="1" vertex="1">
          <mxGeometry x="1094" y="420" width="141" height="102" as="geometry" />
        </mxCell>
        <mxCell id="node21" value="&lt;p style=&quot;margin:0px;margin-top:4px;text-align:center;&quot;&gt;&lt;b&gt;KeyValues&lt;/b&gt;&lt;/p&gt;&lt;hr size=&quot;1&quot;/&gt;&lt;p style=&quot;margin:0 0 0 4px;line-height:1.6;&quot;&gt; Key: nvarchar(50)&lt;br/&gt; Value: nvarchar(50)&lt;br/&gt; Desc: nvarchar(100)&lt;/p&gt;&lt;hr size=&quot;1&quot;/&gt;&lt;p style=&quot;margin:0 0 0 4px;line-height:1.6;&quot;&gt; Id: int&lt;/p&gt;" style="verticalAlign=top;align=left;overflow=fill;fontSize=14;fontFamily=Helvetica;html=1;rounded=0;shadow=0;comic=0;labelBackgroundColor=none;strokeWidth=1;" parent="1" vertex="1">
          <mxGeometry x="930" y="1510" width="135" height="142" as="geometry" />
        </mxCell>
        <mxCell id="node18" value="&lt;p style=&quot;margin:0px;margin-top:4px;text-align:center;&quot;&gt;&lt;b&gt;MIM_Cache&lt;/b&gt;&lt;/p&gt;&lt;hr size=&quot;1&quot;/&gt;&lt;p style=&quot;margin:0 0 0 4px;line-height:1.6;&quot;&gt; FirstName: nvarchar(200)&lt;br/&gt; LastName: nvarchar(200)&lt;br/&gt; MiddleName: nvarchar(200)&lt;br/&gt; Guid: nvarchar(40)&lt;br/&gt; OrgTreePath: nvarchar(800)&lt;br/&gt; JobTitle: nvarchar(200)&lt;br/&gt; TabCode: nvarchar(20)&lt;br/&gt; PassportFull: nvarchar(500)&lt;br/&gt; OfficePhone: nvarchar(20)&lt;br/&gt; RegistrationAddress: nvarchar(200)&lt;br/&gt; IsFired: bit&lt;/p&gt;&lt;hr size=&quot;1&quot;/&gt;&lt;p style=&quot;margin:0 0 0 4px;line-height:1.6;&quot;&gt; Id: bigint&lt;/p&gt;" style="verticalAlign=top;align=left;overflow=fill;fontSize=14;fontFamily=Helvetica;html=1;rounded=0;shadow=0;comic=0;labelBackgroundColor=none;strokeWidth=1;" parent="1" vertex="1">
          <mxGeometry x="560" y="2020" width="220" height="331" as="geometry" />
        </mxCell>
        <mxCell id="7ZjIoTD0nGE5JDTKxoU6-4" style="edgeStyle=orthogonalEdgeStyle;rounded=1;orthogonalLoop=1;jettySize=auto;html=1;exitX=0.5;exitY=0;exitDx=0;exitDy=0;entryX=0;entryY=1;entryDx=0;entryDy=0;" edge="1" parent="1" source="node31" target="node37">
          <mxGeometry relative="1" as="geometry">
            <mxPoint x="370" y="161" as="targetPoint" />
          </mxGeometry>
        </mxCell>
        <mxCell id="node31" value="&lt;p style=&quot;margin:0px;margin-top:4px;text-align:center;&quot;&gt;&lt;b&gt;MimTraineeMaster&lt;/b&gt;&lt;/p&gt;&lt;hr size=&quot;1&quot;/&gt;&lt;p style=&quot;margin:0 0 0 4px;line-height:1.6;&quot;&gt; MasterEmployeeId: int&lt;br/&gt; TraineeEmployeeId: int&lt;br/&gt; TrainingDateStart: datetime&lt;br/&gt; TrainingDateEnd: datetime&lt;br/&gt; TrainingAct: nvarchar(50)&lt;br/&gt; TrainingType: nvarchar(50)&lt;/p&gt;&lt;hr size=&quot;1&quot;/&gt;&lt;p style=&quot;margin:0 0 0 4px;line-height:1.6;&quot;&gt; MimTraineeMasterId: int&lt;/p&gt;" style="verticalAlign=top;align=left;overflow=fill;fontSize=14;fontFamily=Helvetica;html=1;rounded=0;shadow=0;comic=0;labelBackgroundColor=none;strokeWidth=1;" parent="1" vertex="1">
          <mxGeometry x="-130" y="150" width="183" height="216" as="geometry" />
        </mxCell>
        <mxCell id="node36" value="&lt;p style=&quot;margin:0px;margin-top:4px;text-align:center;&quot;&gt;&lt;b&gt;MimView&lt;/b&gt;&lt;/p&gt;&lt;hr size=&quot;1&quot;/&gt;&lt;p style=&quot;margin:0 0 0 4px;line-height:1.6;&quot;&gt; oid: nvarchar(36)&lt;br/&gt; employeenumber: nvarchar(4000)&lt;br/&gt; employmentplaceidstring: nvarchar(200)&lt;br/&gt; skud: varchar(10)&lt;br/&gt; FirstName: nvarchar(200)&lt;br/&gt; LastName: nvarchar(200)&lt;br/&gt; MiddleName: nvarchar(200)&lt;br/&gt; fullname: nvarchar(602)&lt;br/&gt; card: nvarchar(34)&lt;br/&gt; PassportFull: nvarchar(303)&lt;br/&gt; OfficePhone: nvarchar(20)&lt;br/&gt; RegistrationAddress: nvarchar(200)&lt;br/&gt; IsExternal: bit&lt;br/&gt; PositionName: nvarchar(250)&lt;br/&gt; Photo: image&lt;br/&gt; IsFired: bit&lt;/p&gt;" style="verticalAlign=top;align=left;overflow=fill;fontSize=14;fontFamily=Helvetica;html=1;rounded=0;shadow=0;comic=0;labelBackgroundColor=none;strokeWidth=1;" parent="1" vertex="1">
          <mxGeometry x="2870" y="860" width="250" height="411" as="geometry" />
        </mxCell>
        <mxCell id="node29" value="&lt;p style=&quot;margin:0px;margin-top:4px;text-align:center;&quot;&gt;&lt;b&gt;OnlyThirdOrg&lt;/b&gt;&lt;/p&gt;&lt;hr size=&quot;1&quot;/&gt;&lt;p style=&quot;margin:0 0 0 4px;line-height:1.6;&quot;&gt; Площадка: varchar(8)&lt;br/&gt; ПлощадкаГруппа: varchar(8)&lt;br/&gt; SubdivisionName: nvarchar(200)&lt;br/&gt; Employee: nvarchar(602)&lt;br/&gt; PassCode: nvarchar(20)&lt;br/&gt; PositionName: nvarchar(250)&lt;br/&gt; KPP_In: nvarchar(200)&lt;br/&gt; EventTypeId_In: int&lt;br/&gt; EventDateTime_In: datetime&lt;br/&gt; KPP_Out: nvarchar(200)&lt;br/&gt; EventTypeId_Out: int&lt;br/&gt; EventDateTime_Out: datetime&lt;br/&gt; SecondNew: int&lt;br/&gt; Нарушение: varchar(26)&lt;/p&gt;" style="verticalAlign=top;align=left;overflow=fill;fontSize=14;fontFamily=Helvetica;html=1;rounded=0;shadow=0;comic=0;labelBackgroundColor=none;strokeWidth=1;" parent="1" vertex="1">
          <mxGeometry x="3946" y="1949" width="204" height="371" as="geometry" />
        </mxCell>
        <mxCell id="node6" value="&lt;p style=&quot;margin:0px;margin-top:4px;text-align:center;&quot;&gt;&lt;b&gt;PowerBIDashboardCollector  /* Таблица для сбора информации из представлений для показывания... */&lt;/b&gt;&lt;/p&gt;&lt;hr size=&quot;1&quot;/&gt;&lt;p style=&quot;margin:0 0 0 4px;line-height:1.6;&quot;&gt; Площадка: varchar(200)&lt;br/&gt; ПлощадкаГруппа: varchar(500)&lt;br/&gt; SubdivisionName: nvarchar(max)&lt;br/&gt; Employee: nvarchar(200)&lt;br/&gt; PassCode: nvarchar(50)&lt;br/&gt; PositionName: nvarchar(max)&lt;br/&gt; KPP_In: nvarchar(100)&lt;br/&gt; EventTypeId_In: int&lt;br/&gt; EventDateTime_In: datetime&lt;br/&gt; KPP_Out: nvarchar(100)&lt;br/&gt; EventTypeId_Out: int&lt;br/&gt; EventDateTime_Out: datetime&lt;br/&gt; SecondNew: int&lt;br/&gt; Нарушение: varchar(max)&lt;br/&gt; IsThirdOrg: bit&lt;/p&gt;&lt;hr size=&quot;1&quot;/&gt;&lt;p style=&quot;margin:0 0 0 4px;line-height:1.6;&quot;&gt; id  /* Первичный ключ */: bigint&lt;/p&gt;" style="verticalAlign=top;align=left;overflow=fill;fontSize=14;fontFamily=Helvetica;html=1;rounded=0;shadow=0;comic=0;labelBackgroundColor=none;strokeWidth=1;" parent="1" vertex="1">
          <mxGeometry x="-1260" y="1480" width="730" height="422" as="geometry" />
        </mxCell>
        <mxCell id="node35" value="&lt;p style=&quot;margin:0px;margin-top:4px;text-align:center;&quot;&gt;&lt;b&gt;RepeatPassesSendLog  /* Таблица для записей о повторных входах, на которые уже отправ... */&lt;/b&gt;&lt;/p&gt;&lt;hr size=&quot;1&quot;/&gt;&lt;p style=&quot;margin:0 0 0 4px;line-height:1.6;&quot;&gt; EventId  /* ID записи из таблицы SigurEvent */: bigint&lt;br/&gt; EventDateTime  /* Время второго прохода */: datetime&lt;br/&gt; SendDateTime  /* Время отправки сообщения о втором проходе */: datetime&lt;/p&gt;&lt;hr size=&quot;1&quot;/&gt;&lt;p style=&quot;margin:0 0 0 4px;line-height:1.6;&quot;&gt; id  /* ID записи */: bigint&lt;/p&gt;" style="verticalAlign=top;align=left;overflow=fill;fontSize=14;fontFamily=Helvetica;html=1;rounded=0;shadow=0;comic=0;labelBackgroundColor=none;strokeWidth=1;" parent="1" vertex="1">
          <mxGeometry x="-370" y="1500" width="733" height="152" as="geometry" />
        </mxCell>
        <mxCell id="node34" value="&lt;p style=&quot;margin:0px;margin-top:4px;text-align:center;&quot;&gt;&lt;b&gt;SED_Items&lt;/b&gt;&lt;/p&gt;&lt;hr size=&quot;1&quot;/&gt;&lt;p style=&quot;margin:0 0 0 4px;line-height:1.6;&quot;&gt; RequestUNID: nvarchar(32)&lt;br/&gt; techModel: nvarchar(50)&lt;br/&gt; techNumber: nvarchar(50)&lt;br/&gt; DI: datetime&lt;br/&gt; DE: datetime&lt;/p&gt;&lt;hr size=&quot;1&quot;/&gt;&lt;p style=&quot;margin:0 0 0 4px;line-height:1.6;&quot;&gt; ID: bigint&lt;/p&gt;" style="verticalAlign=top;align=left;overflow=fill;fontSize=14;fontFamily=Helvetica;html=1;rounded=0;shadow=0;comic=0;labelBackgroundColor=none;strokeWidth=1;" parent="1" vertex="1">
          <mxGeometry x="3090" y="-874" width="179" height="196" as="geometry" />
        </mxCell>
        <mxCell id="node8" value="&lt;p style=&quot;margin:0px;margin-top:4px;text-align:center;&quot;&gt;&lt;b&gt;SED_MaterialPropusk&lt;/b&gt;&lt;/p&gt;&lt;hr size=&quot;1&quot;/&gt;&lt;p style=&quot;margin:0 0 0 4px;line-height:1.6;&quot;&gt; MaterialName: nvarchar(100)&lt;br/&gt; MaterialInvNumber: nvarchar(50)&lt;br/&gt; MaterialQuantity: nvarchar(50)&lt;br/&gt; Unit: nvarchar(20)&lt;br/&gt; DI: datetime&lt;br/&gt; DE: datetime&lt;br/&gt; RequestUNID: varchar(32)&lt;/p&gt;&lt;hr size=&quot;1&quot;/&gt;&lt;p style=&quot;margin:0 0 0 4px;line-height:1.6;&quot;&gt; ID: bigint&lt;/p&gt;" style="verticalAlign=top;align=left;overflow=fill;fontSize=14;fontFamily=Helvetica;html=1;rounded=0;shadow=0;comic=0;labelBackgroundColor=none;strokeWidth=1;" parent="1" vertex="1">
          <mxGeometry x="2840" y="-874" width="212" height="236" as="geometry" />
        </mxCell>
        <mxCell id="node38" value="&lt;p style=&quot;margin:0px;margin-top:4px;text-align:center;&quot;&gt;&lt;b&gt;SED_Person&lt;/b&gt;&lt;/p&gt;&lt;hr size=&quot;1&quot;/&gt;&lt;p style=&quot;margin:0 0 0 4px;line-height:1.6;&quot;&gt; RequestUNID: nvarchar(32)&lt;br/&gt; PersonPassportKemVydan: nvarchar(150)&lt;br/&gt; PersonPassportKogdaVydan: date&lt;br/&gt; PersonFam: nvarchar(50)&lt;br/&gt; PersonName: nvarchar(50)&lt;br/&gt; PersonOtch: nvarchar(50)&lt;br/&gt; PersonBirthday: date&lt;br/&gt; PersonDocType: nvarchar(50)&lt;br/&gt; PersonPassportSer: nvarchar(4)&lt;br/&gt; PersonPassportNum: nvarchar(6)&lt;br/&gt; PersonDriversLicenseSer: nvarchar(10)&lt;br/&gt; PersonDriversLicenseNum: nvarchar(10)&lt;br/&gt; PersonPhone: nvarchar(50)&lt;br/&gt; PersonPost: nvarchar(50)&lt;br/&gt; CheckResident: nvarchar(10)&lt;br/&gt; PersonTrailerGosN: nvarchar(20)&lt;br/&gt; PersonCarGosN: nvarchar(20)&lt;br/&gt; PersonCarMark: nvarchar(50)&lt;br/&gt; PersonCarType: nvarchar(50)&lt;br/&gt; PersonCarTypeName: nvarchar(50)&lt;br/&gt; PersonAddress: nvarchar(150)&lt;br/&gt; PersonWorkPlace: nvarchar(100)&lt;br/&gt; DI: datetime&lt;br/&gt; DE: datetime&lt;br/&gt; PERSONPASSLKK: nvarchar(50)&lt;/p&gt;&lt;hr size=&quot;1&quot;/&gt;&lt;p style=&quot;margin:0 0 0 4px;line-height:1.6;&quot;&gt; ID: bigint&lt;/p&gt;" style="verticalAlign=top;align=left;overflow=fill;fontSize=14;fontFamily=Helvetica;html=1;rounded=0;shadow=0;comic=0;labelBackgroundColor=none;strokeWidth=1;" parent="1" vertex="1">
          <mxGeometry x="2154" y="-874" width="306" height="644" as="geometry" />
        </mxCell>
        <mxCell id="node7" value="&lt;p style=&quot;margin:0px;margin-top:4px;text-align:center;&quot;&gt;&lt;b&gt;SED_Request&lt;/b&gt;&lt;/p&gt;&lt;hr size=&quot;1&quot;/&gt;&lt;p style=&quot;margin:0 0 0 4px;line-height:1.6;&quot;&gt; RequestUNID: nvarchar(32)&lt;br/&gt; DocName: nvarchar(500)&lt;br/&gt; VidCode: nvarchar(4)&lt;br/&gt; facility: int&lt;br/&gt; BalanceItCode: nvarchar(2)&lt;br/&gt; propuskNum: nvarchar(20)&lt;br/&gt; LKK: bigint&lt;br/&gt; Route: nvarchar(500)&lt;br/&gt; DatePurposeIn: date&lt;br/&gt; TimePurposeIn: nvarchar(5)&lt;br/&gt; OrderNum: nvarchar(12)&lt;br/&gt; KPPin: nvarchar(100)&lt;br/&gt; KPPout: nvarchar(100)&lt;br/&gt; orderDelivery: nvarchar(10)&lt;br/&gt; DatePurposeOut: date&lt;br/&gt; TimePurposeOut: nvarchar(5)&lt;br/&gt; ObjectCode: nvarchar(500)&lt;br/&gt; ObjectPurpose: nvarchar(500)&lt;br/&gt; VisitPurpose: nvarchar(500)&lt;br/&gt; orgFromName: nvarchar(100)&lt;br/&gt; ExecutorID: nvarchar(32)&lt;br/&gt; Executor: nvarchar(150)&lt;br/&gt; InitiatorID: nvarchar(32)&lt;br/&gt; Initiator: nvarchar(150)&lt;br/&gt; orderDecor: nvarchar(20)&lt;br/&gt; WorkNature: nvarchar(500)&lt;br/&gt; checkOrgT: nvarchar(2)&lt;br/&gt; SpecialObjects: nvarchar(150)&lt;br/&gt; DocNumber: bigint&lt;br/&gt; RegNum: nvarchar(30)&lt;br/&gt; RegDate: date&lt;br/&gt; AppStart: datetime&lt;br/&gt; DI: datetime&lt;br/&gt; DE: datetime&lt;br/&gt; CardNumber: nvarchar(20)&lt;/p&gt;&lt;hr size=&quot;1&quot;/&gt;&lt;p style=&quot;margin:0 0 0 4px;line-height:1.6;&quot;&gt; ID: bigint&lt;/p&gt;" style="verticalAlign=top;align=left;overflow=fill;fontSize=14;fontFamily=Helvetica;html=1;rounded=0;shadow=0;comic=0;labelBackgroundColor=none;strokeWidth=1;" parent="1" vertex="1">
          <mxGeometry x="2530" y="-874" width="240" height="864" as="geometry" />
        </mxCell>
        <mxCell id="node28" value="&lt;p style=&quot;margin:0px;margin-top:4px;text-align:center;&quot;&gt;&lt;b&gt;SigurEnterLog&lt;/b&gt;&lt;/p&gt;&lt;hr size=&quot;1&quot;/&gt;&lt;p style=&quot;margin:0 0 0 4px;line-height:1.6;&quot;&gt; Код записи: bigint&lt;br/&gt; Код сотрудника в ИБД: int&lt;br/&gt; Имя: nvarchar(200)&lt;br/&gt; Фамилия: nvarchar(200)&lt;br/&gt; Отчество: nvarchar(200)&lt;br/&gt; Время прохода: datetime&lt;br/&gt; Вход/выход: nvarchar(10)&lt;br/&gt; Проход/запрет: nvarchar(10)&lt;br/&gt; Табельный из Сигура: nvarchar(10)&lt;br/&gt; Код отказа: nvarchar(200)&lt;br/&gt; Номер КПП: nvarchar(200)&lt;br/&gt; Название КПП: nvarchar(200)&lt;br/&gt; Код сотрудника в Сигуре: int&lt;br/&gt; Сервер: nvarchar(10)&lt;/p&gt;" style="verticalAlign=top;align=left;overflow=fill;fontSize=14;fontFamily=Helvetica;html=1;rounded=0;shadow=0;comic=0;labelBackgroundColor=none;strokeWidth=1;" parent="1" vertex="1">
          <mxGeometry x="3674" y="1949" width="227" height="371" as="geometry" />
        </mxCell>
        <mxCell id="cWEJfIrk-wbByWxWi2YJ-10" style="edgeStyle=orthogonalEdgeStyle;rounded=1;orthogonalLoop=1;jettySize=auto;html=1;exitX=1;exitY=0.5;exitDx=0;exitDy=0;entryX=0.5;entryY=1;entryDx=0;entryDy=0;" parent="1" source="node4" target="node25" edge="1">
          <mxGeometry relative="1" as="geometry" />
        </mxCell>
        <mxCell id="node4" value="&lt;p style=&quot;margin:0px;margin-top:4px;text-align:center;&quot;&gt;&lt;b&gt;SigurEvent&lt;/b&gt;&lt;/p&gt;&lt;hr size=&quot;1&quot;/&gt;&lt;p style=&quot;margin:0 0 0 4px;line-height:1.6;&quot;&gt; EmployeeId: int&lt;br/&gt; EventDateTime: datetime&lt;br/&gt; DirecrionId: int&lt;br/&gt; EventTypeId: int&lt;br/&gt; TabCode: nvarchar(10)&lt;br/&gt; PassCode: nvarchar(20)&lt;br/&gt; DenyReason: nvarchar(200)&lt;br/&gt; Description: nvarchar(200)&lt;br/&gt; AlkoValue: float&lt;br/&gt; KppName: nvarchar(200)&lt;br/&gt; PersonName: nvarchar(200)&lt;br/&gt; UserUpdate: nvarchar(30)&lt;br/&gt; SigurEmployeeId: int&lt;br/&gt; ServerName: nvarchar(10)&lt;br/&gt; CarId: int&lt;/p&gt;&lt;hr size=&quot;1&quot;/&gt;&lt;p style=&quot;margin:0 0 0 4px;line-height:1.6;&quot;&gt; Id: bigint&lt;/p&gt;" style="verticalAlign=top;align=left;overflow=fill;fontSize=14;fontFamily=Helvetica;html=1;rounded=0;shadow=0;comic=0;labelBackgroundColor=none;strokeWidth=1;" parent="1" vertex="1">
          <mxGeometry x="792" y="343" width="179" height="417" as="geometry" />
        </mxCell>
        <mxCell id="node3" value="&lt;p style=&quot;margin:0px;margin-top:4px;text-align:center;&quot;&gt;&lt;b&gt;SigurEventDirection&lt;/b&gt;&lt;/p&gt;&lt;hr size=&quot;1&quot;/&gt;&lt;p style=&quot;margin:0 0 0 4px;line-height:1.6;&quot;&gt; DirectionName: nvarchar(10)&lt;br/&gt; DirectionNameEng: nvarchar(20)&lt;/p&gt;&lt;hr size=&quot;1&quot;/&gt;&lt;p style=&quot;margin:0 0 0 4px;line-height:1.6;&quot;&gt; DirectionId: int&lt;/p&gt;" style="verticalAlign=top;align=left;overflow=fill;fontSize=14;fontFamily=Helvetica;html=1;rounded=0;shadow=0;comic=0;labelBackgroundColor=none;strokeWidth=1;" parent="1" vertex="1">
          <mxGeometry x="887" y="-92" width="207" height="122" as="geometry" />
        </mxCell>
        <mxCell id="node26" value="&lt;p style=&quot;margin:0px;margin-top:4px;text-align:center;&quot;&gt;&lt;b&gt;SigurEventType&lt;/b&gt;&lt;/p&gt;&lt;hr size=&quot;1&quot;/&gt;&lt;p style=&quot;margin:0 0 0 4px;line-height:1.6;&quot;&gt; EventTypeName: nvarchar(10)&lt;/p&gt;&lt;hr size=&quot;1&quot;/&gt;&lt;p style=&quot;margin:0 0 0 4px;line-height:1.6;&quot;&gt; EventTypeId: int&lt;/p&gt;" style="verticalAlign=top;align=left;overflow=fill;fontSize=14;fontFamily=Helvetica;html=1;rounded=0;shadow=0;comic=0;labelBackgroundColor=none;strokeWidth=1;" parent="1" vertex="1">
          <mxGeometry x="1114" y="-81" width="194" height="101" as="geometry" />
        </mxCell>
        <mxCell id="node1" value="&lt;p style=&quot;margin:0px;margin-top:4px;text-align:center;&quot;&gt;&lt;b&gt;SigurEventView&lt;/b&gt;&lt;/p&gt;&lt;hr size=&quot;1&quot;/&gt;&lt;p style=&quot;margin:0 0 0 4px;line-height:1.6;&quot;&gt; Id: bigint&lt;br/&gt; DirectionName: nvarchar(10)&lt;br/&gt; EventTypeName: nvarchar(10)&lt;br/&gt; FirstName: nvarchar(200)&lt;br/&gt; LastName: nvarchar(200)&lt;br/&gt; MiddleName: nvarchar(200)&lt;br/&gt; PositionName: nvarchar(200)&lt;br/&gt; EventDateTime: datetime&lt;br/&gt; TabCode: nvarchar(10)&lt;br/&gt; PassCode: nvarchar(20)&lt;br/&gt; DenyReason: nvarchar(200)&lt;br/&gt; Description: nvarchar(200)&lt;br/&gt; AlkoValue: float&lt;br/&gt; KppName: nvarchar(200)&lt;br/&gt; UserUpdate: nvarchar(30)&lt;/p&gt;" style="verticalAlign=top;align=left;overflow=fill;fontSize=14;fontFamily=Helvetica;html=1;rounded=0;shadow=0;comic=0;labelBackgroundColor=none;strokeWidth=1;" parent="1" vertex="1">
          <mxGeometry x="3435" y="1949" width="194" height="381" as="geometry" />
        </mxCell>
        <mxCell id="node24" value="&lt;p style=&quot;margin:0px;margin-top:4px;text-align:center;&quot;&gt;&lt;b&gt;SigurSideParam&lt;/b&gt;&lt;/p&gt;&lt;hr size=&quot;1&quot;/&gt;&lt;p style=&quot;margin:0 0 0 4px;line-height:1.6;&quot;&gt; Name: nvarchar(100)&lt;br/&gt; Type: nvarchar(20)&lt;br/&gt; Idx: int&lt;br/&gt; IdParamType: int&lt;br/&gt; IsEmployeeRelated: bit&lt;br/&gt; IsCarRelated: bit&lt;br/&gt; IsGuestRelated: bit&lt;/p&gt;&lt;hr size=&quot;1&quot;/&gt;&lt;p style=&quot;margin:0 0 0 4px;line-height:1.6;&quot;&gt; Id: bigint&lt;/p&gt;" style="verticalAlign=top;align=left;overflow=fill;fontSize=14;fontFamily=Helvetica;html=1;rounded=0;shadow=0;comic=0;labelBackgroundColor=none;strokeWidth=1;" parent="1" vertex="1">
          <mxGeometry x="-880" y="-508" width="156" height="236" as="geometry" />
        </mxCell>
        <mxCell id="cWEJfIrk-wbByWxWi2YJ-13" style="edgeStyle=orthogonalEdgeStyle;rounded=1;orthogonalLoop=1;jettySize=auto;html=1;exitX=0;exitY=0.5;exitDx=0;exitDy=0;entryX=1;entryY=0.5;entryDx=0;entryDy=0;" parent="1" source="node33" target="node24" edge="1">
          <mxGeometry relative="1" as="geometry" />
        </mxCell>
        <mxCell id="node33" value="&lt;p style=&quot;margin:0px;margin-top:4px;text-align:center;&quot;&gt;&lt;b&gt;SigurSideParamValue&lt;/b&gt;&lt;/p&gt;&lt;hr size=&quot;1&quot;/&gt;&lt;p style=&quot;margin:0 0 0 4px;line-height:1.6;&quot;&gt; SigurEmployeeId: bigint&lt;br/&gt; SigurSideParamId: bigint&lt;br/&gt; TableId: int&lt;br/&gt; Value: nvarchar(500)&lt;/p&gt;&lt;hr size=&quot;1&quot;/&gt;&lt;p style=&quot;margin:0 0 0 4px;line-height:1.6;&quot;&gt; Id: bigint&lt;/p&gt;" style="verticalAlign=top;align=left;overflow=fill;fontSize=14;fontFamily=Helvetica;html=1;rounded=0;shadow=0;comic=0;labelBackgroundColor=none;strokeWidth=1;" parent="1" vertex="1">
          <mxGeometry x="-530" y="-473" width="185" height="166" as="geometry" />
        </mxCell>
        <mxCell id="node22" value="&lt;p style=&quot;margin:0px;margin-top:4px;text-align:center;&quot;&gt;&lt;b&gt;Subdivision&lt;/b&gt;&lt;/p&gt;&lt;hr size=&quot;1&quot;/&gt;&lt;p style=&quot;margin:0 0 0 4px;line-height:1.6;&quot;&gt; SubdivisionCode: nvarchar(20)&lt;br/&gt; SubdivisionName: nvarchar(200)&lt;br/&gt; DivisionId: int&lt;br/&gt; ShortSubdivisionName: nvarchar(200)&lt;br/&gt; ParentSubdivisionId: int&lt;/p&gt;&lt;hr size=&quot;1&quot;/&gt;&lt;p style=&quot;margin:0 0 0 4px;line-height:1.6;&quot;&gt; SubdivisionId: int&lt;/p&gt;" style="verticalAlign=top;align=left;overflow=fill;fontSize=14;fontFamily=Helvetica;html=1;rounded=0;shadow=0;comic=0;labelBackgroundColor=none;strokeWidth=1;" parent="1" vertex="1">
          <mxGeometry x="263" y="-669" width="235" height="193" as="geometry" />
        </mxCell>
        <mxCell id="node9" value="&lt;p style=&quot;margin:0px;margin-top:4px;text-align:center;&quot;&gt;&lt;b&gt;TestEmplPasses&lt;/b&gt;&lt;/p&gt;&lt;hr size=&quot;1&quot;/&gt;&lt;p style=&quot;margin:0 0 0 4px;line-height:1.6;&quot;&gt; pass_date: datetime&lt;br/&gt; kpp: nvarchar(200)&lt;br/&gt; fio: nvarchar(602)&lt;/p&gt;" style="verticalAlign=top;align=left;overflow=fill;fontSize=14;fontFamily=Helvetica;html=1;rounded=0;shadow=0;comic=0;labelBackgroundColor=none;strokeWidth=1;" parent="1" vertex="1">
          <mxGeometry x="2905" y="2550" width="147" height="112" as="geometry" />
        </mxCell>
        <mxCell id="node17" value="&lt;p style=&quot;margin:0px;margin-top:4px;text-align:center;&quot;&gt;&lt;b&gt;UpdatedValues&lt;/b&gt;&lt;/p&gt;&lt;hr size=&quot;1&quot;/&gt;&lt;p style=&quot;margin:0 0 0 4px;line-height:1.6;&quot;&gt; UpdatedColumn: nvarchar(50)&lt;br/&gt; PreviousValue: nvarchar(50)&lt;br/&gt; NewValue: nvarchar(50)&lt;br/&gt; DateUpdate: datetime&lt;/p&gt;&lt;hr size=&quot;1&quot;/&gt;&lt;p style=&quot;margin:0 0 0 4px;line-height:1.6;&quot;&gt; Id: bigint&lt;/p&gt;" style="verticalAlign=top;align=left;overflow=fill;fontSize=14;fontFamily=Helvetica;html=1;rounded=0;shadow=0;comic=0;labelBackgroundColor=none;strokeWidth=1;" parent="1" vertex="1">
          <mxGeometry x="660" y="1510" width="192" height="176" as="geometry" />
        </mxCell>
        <mxCell id="node20" value="&lt;p style=&quot;margin:0px;margin-top:4px;text-align:center;&quot;&gt;&lt;b&gt;ViewPperson&lt;/b&gt;&lt;/p&gt;&lt;hr size=&quot;1&quot;/&gt;&lt;p style=&quot;margin:0 0 0 4px;line-height:1.6;&quot;&gt; Фамилия: nvarchar(200)&lt;br/&gt; Имя: nvarchar(200)&lt;br/&gt; Отчество: nvarchar(200)&lt;br/&gt; Дата рождения: varchar(10)&lt;br/&gt; Табельный номер: nvarchar(50)&lt;br/&gt; PassportSerial: nvarchar(10)&lt;br/&gt; PassportNumber: nvarchar(10)&lt;br/&gt; Номер пропуска: nvarchar(14)&lt;br/&gt; SubdivisionName: nvarchar(200)&lt;br/&gt; DivisionName: nvarchar(200)&lt;br/&gt; PhotoPreview: image&lt;br/&gt; PositionName: nvarchar(250)&lt;br/&gt; fullname: nvarchar(602)&lt;/p&gt;" style="verticalAlign=top;align=left;overflow=fill;fontSize=14;fontFamily=Helvetica;html=1;rounded=0;shadow=0;comic=0;labelBackgroundColor=none;strokeWidth=1;" parent="1" vertex="1">
          <mxGeometry x="4444" y="1949" width="208" height="331" as="geometry" />
        </mxCell>
        <mxCell id="edge7" value="" style="html=1;rounded=1;edgeStyle=orthogonalEdgeStyle;dashed=0;startArrow=none;endArrow=block;endSize=12;strokeColor=#595959;exitX=0.750;exitY=0.000;exitDx=0;exitDy=0;entryX=0.500;entryY=1.000;entryDx=0;entryDy=0;" parent="1" source="node37" target="node10" edge="1">
          <mxGeometry width="50" height="50" relative="1" as="geometry">
            <Array as="points">
              <mxPoint x="590" y="-398" />
              <mxPoint x="644" y="-398" />
            </Array>
          </mxGeometry>
        </mxCell>
        <mxCell id="label44" value="EmployeePositionId" style="edgeLabel;resizable=0;html=1;align=left;verticalAlign=top;strokeColor=default;" parent="edge7" vertex="1" connectable="0">
          <mxGeometry x="530" y="-450" as="geometry" />
        </mxCell>
        <mxCell id="edge1" value="" style="html=1;rounded=1;edgeStyle=orthogonalEdgeStyle;dashed=0;startArrow=none;endArrow=block;endSize=12;strokeColor=#595959;exitX=0.250;exitY=0.000;exitDx=0;exitDy=0;entryX=0.750;entryY=1.000;entryDx=0;entryDy=0;" parent="1" source="node37" target="node22" edge="1">
          <mxGeometry width="50" height="50" relative="1" as="geometry">
            <Array as="points">
              <mxPoint x="480" y="-398" />
              <mxPoint x="430" y="-398" />
              <mxPoint x="430" y="-450" />
              <mxPoint x="439" y="-450" />
            </Array>
          </mxGeometry>
        </mxCell>
        <mxCell id="label8" value="SubdivisionId" style="edgeLabel;resizable=0;html=1;align=left;verticalAlign=top;strokeColor=default;" parent="edge1" vertex="1" connectable="0">
          <mxGeometry x="360" y="-450" as="geometry" />
        </mxCell>
        <mxCell id="edge6" value="" style="html=1;rounded=1;edgeStyle=orthogonalEdgeStyle;dashed=0;startArrow=none;endArrow=block;endSize=12;strokeColor=#595959;exitX=0.500;exitY=0.000;exitDx=0;exitDy=0;entryX=0.500;entryY=1.000;entryDx=0;entryDy=0;" parent="1" source="node23" target="node37" edge="1">
          <mxGeometry width="50" height="50" relative="1" as="geometry">
            <Array as="points" />
          </mxGeometry>
        </mxCell>
        <mxCell id="label38" value="EmployeeId" style="edgeLabel;resizable=0;html=1;align=left;verticalAlign=top;strokeColor=default;" parent="edge6" vertex="1" connectable="0">
          <mxGeometry x="466" y="380" as="geometry" />
        </mxCell>
        <mxCell id="edge2" value="" style="html=1;rounded=1;edgeStyle=orthogonalEdgeStyle;dashed=0;startArrow=none;endArrow=block;endSize=12;strokeColor=#595959;exitX=0.500;exitY=0.000;exitDx=0;exitDy=0;entryX=0.500;entryY=1.000;entryDx=0;entryDy=0;" parent="1" source="node2" target="node11" edge="1">
          <mxGeometry width="50" height="50" relative="1" as="geometry">
            <Array as="points" />
          </mxGeometry>
        </mxCell>
        <mxCell id="label14" value="GuestCardId" style="edgeLabel;resizable=0;html=1;align=left;verticalAlign=top;strokeColor=default;" parent="edge2" vertex="1" connectable="0">
          <mxGeometry x="1607.5" y="-710" as="geometry" />
        </mxCell>
        <mxCell id="edge4" value="" style="html=1;rounded=1;edgeStyle=orthogonalEdgeStyle;dashed=0;startArrow=none;endArrow=block;endSize=12;strokeColor=#595959;exitX=0.375;exitY=0.000;exitDx=0;exitDy=0;entryX=0.500;entryY=1.000;entryDx=0;entryDy=0;" parent="1" source="node4" target="node19" edge="1">
          <mxGeometry width="50" height="50" relative="1" as="geometry">
            <Array as="points">
              <mxPoint x="859" y="313" />
              <mxPoint x="766" y="313" />
            </Array>
          </mxGeometry>
        </mxCell>
        <mxCell id="label26" value="CarId" style="edgeLabel;resizable=0;html=1;align=left;verticalAlign=top;strokeColor=default;" parent="edge4" vertex="1" connectable="0">
          <mxGeometry x="810" y="290" as="geometry" />
        </mxCell>
        <mxCell id="edge3" value="" style="html=1;rounded=1;edgeStyle=orthogonalEdgeStyle;dashed=0;startArrow=none;endArrow=block;endSize=12;strokeColor=#595959;exitX=0.125;exitY=0.000;exitDx=0;exitDy=0;entryX=0.500;entryY=1.000;entryDx=0;entryDy=0;" parent="1" source="node4" target="node37" edge="1">
          <mxGeometry width="50" height="50" relative="1" as="geometry">
            <Array as="points">
              <mxPoint x="780" y="343" />
              <mxPoint x="780" y="380" />
              <mxPoint x="535" y="380" />
            </Array>
          </mxGeometry>
        </mxCell>
        <mxCell id="label20" value="EmployeeId" style="edgeLabel;resizable=0;html=1;align=left;verticalAlign=top;strokeColor=default;" parent="edge3" vertex="1" connectable="0">
          <mxGeometry x="640" y="360" as="geometry">
            <mxPoint x="31" y="-11" as="offset" />
          </mxGeometry>
        </mxCell>
        <mxCell id="edge0" value="" style="html=1;rounded=1;edgeStyle=orthogonalEdgeStyle;dashed=0;startArrow=none;endArrow=block;endSize=12;strokeColor=#595959;exitX=0.625;exitY=0.000;exitDx=0;exitDy=0;entryX=0.500;entryY=1.000;entryDx=0;entryDy=0;" parent="1" source="node4" target="node3" edge="1">
          <mxGeometry width="50" height="50" relative="1" as="geometry">
            <Array as="points">
              <mxPoint x="904" y="313" />
              <mxPoint x="990" y="313" />
            </Array>
          </mxGeometry>
        </mxCell>
        <mxCell id="label2" value="DirecrionId:DirectionId" style="edgeLabel;resizable=0;html=1;align=left;verticalAlign=top;strokeColor=default;" parent="edge0" vertex="1" connectable="0">
          <mxGeometry x="864" y="273" as="geometry" />
        </mxCell>
        <mxCell id="edge9" value="" style="html=1;rounded=1;edgeStyle=orthogonalEdgeStyle;dashed=0;startArrow=none;endArrow=block;endSize=12;strokeColor=#595959;exitX=0.875;exitY=0.000;exitDx=0;exitDy=0;entryX=0.500;entryY=1.001;entryDx=0;entryDy=0;" parent="1" source="node4" target="node26" edge="1">
          <mxGeometry width="50" height="50" relative="1" as="geometry">
            <Array as="points">
              <mxPoint x="949" y="323" />
              <mxPoint x="1211" y="323" />
            </Array>
          </mxGeometry>
        </mxCell>
        <mxCell id="label56" value="EventTypeId" style="edgeLabel;resizable=0;html=1;align=left;verticalAlign=top;strokeColor=default;" parent="edge9" vertex="1" connectable="0">
          <mxGeometry x="1045" y="304" as="geometry" />
        </mxCell>
        <mxCell id="edge5" value="" style="html=1;rounded=1;edgeStyle=orthogonalEdgeStyle;dashed=0;startArrow=none;endArrow=block;endSize=12;strokeColor=#595959;exitX=0.500;exitY=0.000;exitDx=0;exitDy=0;entryX=0.500;entryY=1.000;entryDx=0;entryDy=0;" parent="1" source="node22" target="node13" edge="1">
          <mxGeometry width="50" height="50" relative="1" as="geometry">
            <Array as="points" />
          </mxGeometry>
        </mxCell>
        <mxCell id="label32" value="DivisionId" style="edgeLabel;resizable=0;html=1;align=left;verticalAlign=top;strokeColor=default;" parent="edge5" vertex="1" connectable="0">
          <mxGeometry x="320" y="-700" as="geometry" />
        </mxCell>
        <mxCell id="edge8" value="" style="html=1;rounded=1;edgeStyle=orthogonalEdgeStyle;dashed=0;startArrow=none;endArrow=block;endSize=12;strokeColor=#595959;exitX=0.250;exitY=1.000;exitDx=0;exitDy=0;entryX=0.000;entryY=0.500;entryDx=0;entryDy=0;" parent="1" source="node22" target="node22" edge="1">
          <mxGeometry width="50" height="50" relative="1" as="geometry">
            <Array as="points">
              <mxPoint x="322" y="-466" />
              <mxPoint x="228" y="-466" />
              <mxPoint x="228" y="-572" />
              <mxPoint x="263" y="-572" />
            </Array>
          </mxGeometry>
        </mxCell>
        <mxCell id="label50" value="ParentSubdivisionId:SubdivisionId" style="edgeLabel;resizable=0;html=1;align=left;verticalAlign=top;strokeColor=default;" parent="edge8" vertex="1" connectable="0">
          <mxGeometry x="54" y="-530" as="geometry" />
        </mxCell>
        <mxCell id="7ZjIoTD0nGE5JDTKxoU6-3" value="Пустые таблицы" style="text;html=1;strokeColor=none;fillColor=none;align=center;verticalAlign=middle;whiteSpace=wrap;rounded=0;movable=1;resizable=1;rotatable=1;deletable=1;editable=1;locked=0;connectable=1;fontSize=16;" vertex="1" parent="1">
          <mxGeometry x="-80" y="1900" width="520" height="30" as="geometry" />
        </mxCell>
      </root>
    </mxGraphModel>
  </diagram>
</mxfile>
